<svg xmlns="http://www.w3.org/2000/svg" version="1.1" xmlns:xlink="http://www.w3.org/1999/xlink" xmlns:svgjs="http://svgjs.dev/svgjs" width="2000" height="1500" viewBox="0 0 2000 1500"><rect width="2000" height="1500" fill="#faf99c"></rect><g transform="matrix(0.75,0,0,0.75,249.090909090909,282.7536437246963)"><svg viewBox="0 0 396 247" data-background-color="#faf99c" preserveAspectRatio="xMidYMid meet" height="1247" width="2000" xmlns="http://www.w3.org/2000/svg" xmlns:xlink="http://www.w3.org/1999/xlink"><g id="tight-bounds" transform="matrix(1,0,0,1,0.2400000000000091,-0.09999999999999432)"><svg viewBox="0 0 395.52 247.2" height="247.2" width="395.52"><g><svg></svg></g><g><svg viewBox="0 0 395.52 247.2" height="247.2" width="395.52"><g transform="matrix(1,0,0,1,135.3112828402367,47.215199999999996)"><svg viewBox="0 0 124.89743431952662 152.7696" height="152.7696" width="124.89743431952662"><g><svg viewBox="0 0 124.89743431952662 152.7696" height="152.7696" width="124.89743431952662"><g><svg viewBox="0 0 124.89743431952662 152.7696" height="152.7696" width="124.89743431952662"><g><svg viewBox="0 0 124.89743431952662 152.7696" height="152.7696" width="124.89743431952662"><g id="textblocktransform"><svg viewBox="0 0 124.89743431952662 152.7696" height="152.7696" width="124.89743431952662" id="textblock"><g><svg viewBox="0 0 124.89743431952662 152.7696" height="152.7696" width="124.89743431952662"><g transform="matrix(1,0,0,1,0,0)"><svg width="124.89743431952662" viewBox="2.8 -24.7 20.73 25.349999999999998" height="152.7696" data-palette-color="#aba944"><path d="M13.68 0.65L13.68 0.65Q10.18 0.65 7.78-0.34 5.38-1.33 4.11-3.09 2.85-4.85 2.8-7.23L2.8-7.23 7.28-7.23Q7.38-5.15 8.94-4.15 10.5-3.15 13.18-3.15L13.18-3.15Q14.6-3.15 15.76-3.6 16.93-4.05 17.61-4.83 18.3-5.6 18.3-6.58L18.3-6.58Q18.3-7.8 17.4-8.51 16.5-9.22 14.5-9.78L14.5-9.78 9.58-11.45Q6.63-12.45 5.05-14.11 3.48-15.78 3.48-18.1L3.48-18.1Q3.48-21.08 6.13-22.89 8.78-24.7 13.15-24.7L13.15-24.7Q17.68-24.7 20.14-22.79 22.6-20.88 22.7-18L22.7-18 18.13-18Q17.95-19.43 16.71-20.19 15.48-20.95 13.15-20.95L13.15-20.95Q10.98-20.95 9.74-20 8.5-19.05 8.5-17.85L8.5-17.85Q8.5-15.7 12.2-14.65L12.2-14.65 17.38-12.83Q20.33-11.88 21.93-10.38 23.53-8.88 23.53-6.58L23.53-6.58Q23.53-4.73 22.3-3.08 21.08-1.43 18.86-0.39 16.65 0.65 13.68 0.65Z" opacity="1" transform="matrix(1,0,0,1,0,0)" fill="#aba944" class="wordmark-text-0" data-fill-palette-color="primary" id="text-0"></path></svg></g></svg></g></svg></g></svg></g></svg></g></svg></g></svg></g><g><path d="M186.049 0c30.402 0 58.24 10.976 79.768 29.183l-11.147 0c-19.26-14.022-42.974-22.294-68.621-22.295-25.647 0-49.361 8.272-68.621 22.295l-11.148 0c21.528-18.206 49.366-29.183 79.769-29.183zM186.049 247.2c-30.402 0-58.24-10.976-79.768-29.183h11.147c19.26 14.022 42.974 22.294 68.621 22.295 25.647 0 49.361-8.272 68.621-22.295h11.147c-21.528 18.206-49.366 29.183-79.768 29.183z" fill="#aba944" stroke="transparent" data-fill-palette-color="tertiary"></path></g></svg></g><defs></defs></svg><rect width="395.52" height="247.2" fill="none" stroke="none" visibility="hidden"></rect></g></svg></g></svg>